<svg xmlns="http://www.w3.org/2000/svg" width="25" height="20" viewBox="0 0 512 512"><path d="M3.125 263.54l160 160c4.167 4.168 10.917 4.168 15.083 0 4.167-4.166 4.167-10.916 0-15.082L36.416 266.666h464.917c5.896 0 10.667-4.771 10.667-10.667s-4.77-10.667-10.667-10.667H36.416L178.208 103.54c4.167-4.167 4.167-10.917 0-15.083a10.634 10.634 0 00-7.542-3.125 10.636 10.636 0 00-7.542 3.125l-160 160c-4.166 4.166-4.166 10.916.001 15.083z" data-original="#000000" xmlns="http://www.w3.org/2000/svg"/></svg>